<?xml version="1.0" encoding="UTF-8" standalone="no"?>
<svg
   xmlns:dc="http://purl.org/dc/elements/1.1/"
   xmlns:cc="http://creativecommons.org/ns#"
   xmlns:rdf="http://www.w3.org/1999/02/22-rdf-syntax-ns#"
   xmlns:svg="http://www.w3.org/2000/svg"
   xmlns="http://www.w3.org/2000/svg"
   xmlns:sodipodi="http://sodipodi.sourceforge.net/DTD/sodipodi-0.dtd"
   xmlns:inkscape="http://www.inkscape.org/namespaces/inkscape"
   width="24"
   height="24"
   viewBox="0 0 24 24"
   id="svg2"
   version="1.1"
   inkscape:version="0.91 r13725"
   sodipodi:docname="logo.svg">
  <metadata
     id="metadata14">
    <rdf:RDF>
      <cc:Work
         rdf:about="">
        <dc:format>image/svg+xml</dc:format>
        <dc:type
           rdf:resource="http://purl.org/dc/dcmitype/StillImage" />
      </cc:Work>
    </rdf:RDF>
  </metadata>
  <defs
     id="defs12" />
  <sodipodi:namedview
     pagecolor="#ffffff"
     bordercolor="#666666"
     borderopacity="1"
     objecttolerance="10"
     gridtolerance="10"
     guidetolerance="10"
     inkscape:pageopacity="0"
     inkscape:pageshadow="2"
     inkscape:window-width="2498"
     inkscape:window-height="1080"
     id="namedview10"
     showgrid="false"
     inkscape:zoom="16"
     inkscape:cx="10.431499"
     inkscape:cy="11.803331"
     inkscape:window-x="62"
     inkscape:window-y="0"
     inkscape:window-maximized="1"
     inkscape:current-layer="svg2" />
  <rect
     style="fill:#fff176;fill-opacity:1"
     id="rect4142"
     width="18"
     height="10"
     x="3"
     y="7" />
  <path
     fill="none"
     d="M0 0h24v24H0zm0 0h24v24H0zm21 19c0 1.1-.9 2-2 2H5c-1.1 0-2-.9-2-2V5c0-1.1.9-2 2-2h14c1.1 0 2 .9 2 2"
     id="path4" />
  <path
     fill="none"
     d="M0 0h24v24H0z"
     id="path6" />
  <path
     d="M21 5v6.59l-3-3.01-4 4.01-4-4-4 4-3-3.01V5c0-1.1.9-2 2-2h14c1.1 0 2 .9 2 2zm-3 6.42l3 3.01V19c0 1.1-.9 2-2 2H5c-1.1 0-2-.9-2-2v-6.58l3 2.99 4-4 4 4 4-3.99z"
     id="path8"
     style="fill:#00897b;fill-opacity:1" />
</svg>
